<?xml version="1.0" standalone="no"?><!DOCTYPE svg PUBLIC "-//W3C//DTD SVG 1.1//EN" "http://www.w3.org/Graphics/SVG/1.1/DTD/svg11.dtd"><svg t="1790673397455" class="icon" viewBox="0 0 6432 1024" version="1.1" xmlns="http://www.w3.org/2000/svg" p-id="4864" xmlns:xlink="http://www.w3.org/1999/xlink" width="1256.25" height="200"><path d="M6417.550396 868.114174l-45.466699 141.896072h-13.989754l-45.716516-141.896072v141.896072h-12.241035v-154.137106h22.233716l43.218346 135.151012 43.218346-135.151012h21.734081v154.137106h-12.241034v-141.896072z m0 0M6285.397188 855.87314H6146.49892v12.241034h63.203708v141.896072h12.241035v-141.896072h63.453525v-12.241034zM4818.721413 1007.761893h-90.433764l-297.282264-911.33252v911.33252h-79.191998V17.237375h142.145889l276.797268 867.114906h2.997804L5051.550884 17.237375h138.898268v990.524518h-78.442547V96.429373z" fill="#A9B5AF" p-id="4865"></path><path d="M1166.396456 16.987558v990.774335h85.937058V559.839961h118.912905a261.808246 261.808246 0 0 1 92.432301 14.989022c87.685777 33.225665 97.678458 134.901195 113.416931 199.853623l49.963406 234.328372h86.436691l-56.208831-267.30422c-16.487924-80.441083-27.479873-114.915833-49.963406-149.890217-29.728226-46.21615-114.666016-71.197853-114.666016-71.197854 139.397902-27.230056 199.853623-120.661625 199.853623-248.068309C1692.511118 155.636009 1635.802653 18.986094 1375.493309 18.986094h-209.096853z m85.937058 78.942181h113.416931c226.584045 0 239.824347 120.411808 239.824347 174.87192 0 45.216882-8.243962 210.096121-274.798731 210.096121h-78.442547V96.179556z m0 0M1815.670913 488.142474h87.935594c7.994145-39.970725 24.981703-110.918761 142.145889-110.918761 153.387656 0 148.391315 132.902659 148.391315 184.364967v59.956087s-49.963406 0-80.940717 2.997804c-117.164186 8.993413-308.52403 39.471091-308.52403 216.09173s146.392779 182.616248 174.87192 182.616248a251.315931 251.315931 0 0 0 120.911442-28.728958 257.561356 257.561356 0 0 0 91.433032-83.438888h2.997804v96.67919h71.197854V541.103684c0-69.698951 6.495243-232.329837-213.59356-232.329837s-236.826543 146.892413-236.826543 179.368627z m378.222981 201.852159a637.533057 637.533057 0 0 1-4.99634 78.942181 198.104904 198.104904 0 0 1-196.356185 168.12686 92.682118 92.682118 0 0 1-101.425713-92.682118c0-36.223469 13.989754-120.911442 153.137838-147.641863 29.228592-5.495975 149.6404-6.74506 149.6404-6.74506zM2384.004653 16.987558v710.979263c0 38.471822 1.249085 295.533545 238.075628 295.533545 56.958283 0 264.80605-19.985362 264.80605-349.74384s-182.366431-364.483045-237.326177-364.483045a197.105636 197.105636 0 0 0-190.860209 144.394243h-2.498171V16.987558h-72.446938z m416.444987 654.770432c0 276.547451-154.386924 282.293242-178.369359 282.293242s-163.13052 0-163.130519-271.051476c0-224.835326 108.170773-306.02586 182.616247-306.02586s158.88363 76.693828 158.883631 295.033911zM2998.304726 16.987558v710.979263c0 38.471822 1.249085 295.533545 238.075628 295.533545 56.958283 0 264.80605-19.985362 264.806051-349.74384s-182.366431-364.483045-237.326177-364.483045a197.105636 197.105636 0 0 0-190.86021 144.394243h-2.997805V16.987558h-72.446938z m416.444987 654.770432c0 276.547451-154.386924 282.293242-178.369359 282.293242s-163.13052 0-163.130519-271.051476c0-224.835326 108.170773-306.02586 182.616248-306.02586s158.633813 76.693828 158.633813 295.033911zM3694.544785 324.262503v683.49939h-71.697487V324.262503h71.697487zM3711.032709 17.237375v116.164918h-105.92242V17.237375h105.92242z m0 0M4194.178842 1017.25494a704.234203 704.234203 0 0 1-72.946572 6.245426 211.84484 211.84484 0 0 1-136.150281-39.221274c-29.978043-24.981703-44.717248-68.9495-44.717248-129.155403V392.712369h-109.419859v-68.449866h109.419859V166.378141l71.197853-47.715052v205.349597h182.616248v68.449866h-182.366431v439.67797c0 19.735545-4.746524 121.660893 103.42425 121.660893a279.295438 279.295438 0 0 0 78.942181-12.241034v74.945108z m0 0M957.049786 409.699927H638.033441a39.720908 39.720908 0 0 1-39.970725-39.970725V50.712857a39.720908 39.720908 0 0 0-39.970725-39.720908h-119.412539a39.720908 39.720908 0 0 0-39.970725 39.720908v319.016345a39.720908 39.720908 0 0 1-39.970724 39.970725H239.325463a39.720908 39.720908 0 0 1-39.970725-39.970725V50.712857a39.720908 39.720908 0 0 0-39.970724-39.970725H39.721657A39.720908 39.720908 0 0 0 0.00075 50.712857v917.328129a39.720908 39.720908 0 0 0 39.970724 39.970724h917.078312a39.720908 39.720908 0 0 0 39.970725-39.970724V450.420102a39.720908 39.720908 0 0 0-39.970725-40.720175z m-160.382532 338.751891a59.70627 59.70627 0 0 1-59.70627 59.956086h-79.941449a59.70627 59.70627 0 0 1-59.70627-59.956086v-79.691633a59.70627 59.70627 0 0 1 59.70627-59.956086h79.941449a59.70627 59.70627 0 0 1 59.70627 59.956086v79.691633z" fill="#FF6600" p-id="4866"></path><path d="M5849.466473 940.561112c91.682849-78.442547 140.646987-224.835326 140.646987-435.930714 0-307.524762-116.164918-504.630398-333.006099-504.630398-203.351061 0-344.997316 165.129056-344.997316 504.630398s120.411808 503.63113 339.001707 503.631129h408.950476v-83.18907zM5406.291064 504.880215c0-282.293242 80.6909-419.442791 249.817029-419.442791s238.825079 163.879971 238.825079 419.442791-61.454989 420.192242-243.071969 420.192242-245.570139-137.899-245.570139-420.192242z" fill="#A9B5AF" p-id="4867"></path></svg>